<svg xmlns="http://www.w3.org/2000/svg" viewBox="0 0 100 100">
  <!-- Planeta Tierra -->
  <circle cx="50" cy="50" r="45" fill="#4A90E2" stroke="#2C5E8B" stroke-width="2"/>
  
  <!-- Continentes -->
  <path d="M25 35 Q35 25 45 35 Q50 40 40 50 Q30 45 25 35Z" fill="#22C55E"/>
  <path d="M60 25 Q70 20 75 30 Q80 40 70 45 Q65 35 60 25Z" fill="#22C55E"/>
  <path d="M55 55 Q65 50 70 60 Q75 70 65 75 Q55 70 55 55Z" fill="#22C55E"/>
  <path d="M30 65 Q40 60 45 70 Q50 80 40 75 Q30 70 30 65Z" fill="#22C55E"/>
  
  <!-- Nubes -->
  <ellipse cx="35" cy="30" rx="8" ry="4" fill="white" opacity="0.7"/>
  <ellipse cx="65" cy="45" rx="6" ry="3" fill="white" opacity="0.7"/>
  <ellipse cx="45" cy="65" rx="7" ry="3" fill="white" opacity="0.7"/>
  
  <!-- Brillo -->
  <ellipse cx="40" cy="35" rx="8" ry="12" fill="white" opacity="0.2"/>
</svg>
